<svg xmlns="http://www.w3.org/2000/svg" version="1.1" xmlns:xlink="http://www.w3.org/1999/xlink" width="512" height="512" x="0" y="0" viewBox="0 0 512 512" style="enable-background:new 0 0 512 512" xml:space="preserve" class=""><g><path d="M256.079 116.703c-36.307 0-70.825 17.498-92.333 46.806a9.71 9.71 0 0 0-.831 10.186 9.732 9.732 0 0 0 8.721 5.359h.012l168.724-.218a9.733 9.733 0 0 0 8.721-5.379 9.71 9.71 0 0 0-.857-10.185c-21.513-29.159-55.964-46.569-92.157-46.569zm-73.464 47.372c18.741-20.458 45.492-32.407 73.464-32.407 27.872 0 54.558 11.879 73.289 32.218zM162.915 338.303a9.712 9.712 0 0 0 .831 10.187c21.508 29.308 56.025 46.805 92.333 46.805 36.193 0 70.644-17.408 92.157-46.568a9.712 9.712 0 0 0 .857-10.187 9.732 9.732 0 0 0-8.719-5.379l-168.726-.218h-.012a9.735 9.735 0 0 0-8.721 5.36zm166.453 9.81c-18.73 20.339-45.417 32.218-73.289 32.218-27.972 0-54.724-11.95-73.465-32.407z" fill="#ff5958" opacity="1" data-original="#000000" class=""></path><path d="M494.849 193.79h-30.991a14.39 14.39 0 0 1 1.13-3.429c8.192-17.206 7.402-37.318-2.115-53.799a57.845 57.845 0 0 0-45.534-28.732 14.287 14.287 0 0 1-13.169-13.169 57.853 57.853 0 0 0-28.731-45.534 57.844 57.844 0 0 0-53.799-2.115 14.291 14.291 0 0 1-17.991-4.821C292.844 26.494 275.031 17.123 256 17.123s-36.844 9.37-47.649 25.067a14.29 14.29 0 0 1-17.991 4.821 57.844 57.844 0 0 0-53.799 2.115A57.849 57.849 0 0 0 107.83 94.66a14.287 14.287 0 0 1-13.169 13.169c-18.996 1.509-36.019 12.25-45.534 28.732-9.517 16.481-10.307 36.593-2.115 53.799a14.463 14.463 0 0 1 1.12 3.429H17.151C7.694 193.79 0 201.484 0 210.941v90.118c0 9.457 7.694 17.151 17.151 17.151h30.986a14.433 14.433 0 0 1-1.125 3.429c-8.192 17.206-7.402 37.318 2.115 53.799a57.845 57.845 0 0 0 45.534 28.732 14.287 14.287 0 0 1 13.169 13.169 57.853 57.853 0 0 0 28.731 45.534 57.848 57.848 0 0 0 53.799 2.115 14.29 14.29 0 0 1 17.991 4.821c10.805 15.697 28.617 25.067 47.649 25.067s36.844-9.371 47.649-25.067a14.294 14.294 0 0 1 17.991-4.821 57.841 57.841 0 0 0 53.799-2.115 57.849 57.849 0 0 0 28.731-45.534 14.287 14.287 0 0 1 13.169-13.169c18.996-1.509 36.019-12.25 45.534-28.732 9.517-16.481 10.307-36.593 2.115-53.799a14.424 14.424 0 0 1-1.122-3.429h30.982c9.457 0 17.151-7.694 17.151-17.151v-90.118c.001-9.457-7.693-17.151-17.15-17.151zM62.087 144.044a42.883 42.883 0 0 1 33.759-21.297c14.442-1.147 25.756-12.461 26.903-26.903a42.889 42.889 0 0 1 21.296-33.759 42.89 42.89 0 0 1 39.884-1.564c13.084 6.23 28.537 2.086 36.75-9.846 8.012-11.64 21.217-18.588 35.322-18.588s27.31 6.949 35.322 18.588c8.214 11.932 23.671 16.075 36.75 9.846a42.887 42.887 0 0 1 39.884 1.564 42.889 42.889 0 0 1 21.296 33.759c1.146 14.442 12.461 25.756 26.903 26.903a42.884 42.884 0 0 1 33.759 21.297c7.054 12.215 7.637 27.125 1.564 39.884a29.421 29.421 0 0 0-2.726 9.862h-32.474c-9.724-25.037-25.268-47.747-45.703-66.017a7.482 7.482 0 1 0-9.974 11.155c17.172 15.353 30.545 34.146 39.491 54.862H111.877C136.015 138.083 191.525 99.008 256 99.008c27.3 0 54.183 7.112 77.743 20.569a7.482 7.482 0 1 0 7.422-12.994c-25.817-14.745-55.266-22.54-85.165-22.54-72.889 0-135.323 45.588-160.307 109.747h-32.44a29.459 29.459 0 0 0-2.73-9.862 42.882 42.882 0 0 1 1.564-39.884zm387.826 223.912a42.883 42.883 0 0 1-33.759 21.297c-14.442 1.147-25.756 12.461-26.903 26.903a42.889 42.889 0 0 1-21.296 33.759 42.896 42.896 0 0 1-39.884 1.564c-13.082-6.227-28.536-2.085-36.75 9.846-8.012 11.64-21.217 18.588-35.322 18.588s-27.31-6.948-35.322-18.588c-5.648-8.204-14.719-12.725-24.088-12.725-4.257 0-8.576.933-12.662 2.879a42.885 42.885 0 0 1-39.884-1.564 42.889 42.889 0 0 1-21.296-33.759c-1.146-14.442-12.461-25.756-26.903-26.903a42.884 42.884 0 0 1-33.759-21.297c-7.054-12.215-7.637-27.125-1.564-39.884a29.458 29.458 0 0 0 2.733-9.862h32.447C120.688 382.366 183.113 427.956 256 427.956c72.889 0 135.322-45.589 160.305-109.746h32.436a29.454 29.454 0 0 0 2.736 9.862 42.882 42.882 0 0 1-1.564 39.884zm47.122-66.897a2.189 2.189 0 0 1-2.186 2.186H174.607a7.482 7.482 0 1 0 0 14.964h225.511C375.98 373.916 320.474 412.991 256 412.991c-64.476 0-119.99-39.073-144.127-94.781h27.639a7.482 7.482 0 1 0 0-14.964H17.151a2.189 2.189 0 0 1-2.186-2.186v-90.118c0-1.205.981-2.186 2.186-2.186h477.698c1.205 0 2.186.981 2.186 2.186z" fill="#ff5958" opacity="1" data-original="#000000" class=""></path><path d="M280.326 218.953a7.482 7.482 0 0 0-7.482 7.482v59.13a7.482 7.482 0 1 0 14.964 0v-59.13a7.482 7.482 0 0 0-7.482-7.482zM357.984 218.953a7.482 7.482 0 0 0-7.482 7.482v59.13a7.482 7.482 0 1 0 14.964 0v-59.13a7.48 7.48 0 0 0-7.482-7.482zM332.367 234.351a7.482 7.482 0 0 0 7.482-7.482 7.482 7.482 0 0 0-7.482-7.482h-23.789a7.481 7.481 0 0 0-7.482 7.482v58.696c0 4.133 3.349 7.482 7.482 7.482s7.482-3.35 7.482-7.482v-22.422h14.417c4.133 0 7.482-3.349 7.482-7.482s-3.35-7.482-7.482-7.482H316.06v-13.827h16.307zM139.512 234.457a7.482 7.482 0 0 0 7.482-7.482 7.482 7.482 0 0 0-7.482-7.482h-24.688a7.481 7.481 0 0 0-7.482 7.482v58.59a7.482 7.482 0 0 0 7.482 7.482h24.688a7.482 7.482 0 0 0 7.482-7.482 7.482 7.482 0 0 0-7.482-7.482h-17.205v-14.33h15.385a7.481 7.481 0 0 0 7.482-7.483 7.482 7.482 0 0 0-7.482-7.482h-15.385v-14.331zM408.289 234.457a7.482 7.482 0 1 0 0-14.964h-24.687a7.481 7.481 0 0 0-7.482 7.482v58.59a7.482 7.482 0 0 0 7.482 7.482h24.687a7.482 7.482 0 1 0 0-14.964h-17.205v-14.33h15.385a7.481 7.481 0 0 0 7.482-7.483 7.482 7.482 0 0 0-7.482-7.482h-15.385v-14.331zM450.159 220.702h-16.252a7.482 7.482 0 0 0-7.482 7.497v.045s.051 57.367.143 57.836a7.476 7.476 0 0 0 2.186 4.795 7.483 7.483 0 0 0 5.271 2.172h.028c.491-.002 12.08-.047 16.713-.128 17.411-.305 30.048-15.464 30.048-36.045-.001-21.635-12.32-36.172-30.655-36.172zm.345 57.255c-2.079.036-5.7.066-9.023.087a9064.51 9064.51 0 0 1-.05-21.232c0-4.062-.017-14.103-.028-21.144h8.756c14.558 0 15.689 16.232 15.689 21.207 0 14.378-7.707 20.948-15.344 21.082zM91.667 271.484a7.483 7.483 0 0 0-10.542.927 16.166 16.166 0 0 1-1.642 1.695c-2.962 2.638-6.747 3.976-11.249 3.976-12.177 0-22.082-9.906-22.082-22.082s9.905-22.083 22.082-22.083c4.425 0 8.693 1.303 12.341 3.768a7.483 7.483 0 0 0 8.377-12.401 36.863 36.863 0 0 0-20.718-6.332c-20.428 0-37.047 16.619-37.047 37.048 0 20.428 16.619 37.047 37.047 37.047 8.167 0 15.499-2.685 21.202-7.766a31.36 31.36 0 0 0 3.158-3.256 7.484 7.484 0 0 0-.927-10.541zM254.294 218.953H221.64a7.482 7.482 0 1 0 0 14.964h8.778v51.647a7.482 7.482 0 1 0 14.964 0v-51.647h8.911c4.133 0 7.482-3.35 7.482-7.482s-3.348-7.482-7.481-7.482zM206.928 241.802c0-12.599-10.641-22.85-23.72-22.85h-15.732a7.482 7.482 0 0 0-7.483 7.482v59.13c0 4.133 3.35 7.482 7.483 7.482s7.482-3.35 7.482-7.482v-16.496l18.87 21.44a7.462 7.462 0 0 0 5.62 2.539 7.482 7.482 0 0 0 5.613-12.426l-14.931-16.965c9.713-2.86 16.798-11.574 16.798-21.854zm-23.72 7.885c-1.91 0-5.135.013-8.163.027-.016-2.951-.036-12.703-.045-15.797h8.208c4.746 0 8.755 3.611 8.755 7.885s-4.009 7.885-8.755 7.885z" fill="#ff5958" opacity="1" data-original="#000000" class=""></path></g></svg>