<?xml version="1.0" encoding="UTF-8" standalone="no"?>
<!-- Created with Inkscape (http://www.inkscape.org/) -->

<svg
   version="1.1"
   id="svg5619"
   xml:space="preserve"
   width="682.66669"
   height="682.66669"
   viewBox="0 0 682.66669 682.66669"
   xmlns="http://www.w3.org/2000/svg"
   xmlns:svg="http://www.w3.org/2000/svg"><defs
     id="defs5623"><clipPath
       clipPathUnits="userSpaceOnUse"
       id="clipPath5641"><path
         d="M 0,512 H 512 V 0 H 0 Z"
         id="path5639" /></clipPath></defs><g
     id="g5625"
     transform="matrix(1.3333333,0,0,-1.3333333,0,682.66667)"><g
       id="g5627"
       transform="translate(239.2979,110.5)"><path
         d="M 0,0 H -36.511"
         style="fill:none;stroke:#000000;stroke-width:15;stroke-linecap:round;stroke-linejoin:round;stroke-miterlimit:10;stroke-dasharray:none;stroke-opacity:1"
         id="path5629" /></g><g
       id="g5631"
       transform="translate(309.7656,110.5)"><path
         d="M 0,0 H -36.766"
         style="fill:none;stroke:#000000;stroke-width:15;stroke-linecap:round;stroke-linejoin:round;stroke-miterlimit:10;stroke-dasharray:none;stroke-opacity:1"
         id="path5633" /></g><g
       id="g5635"><g
         id="g5637"
         clip-path="url(#clipPath5641)"><g
           id="g5643"
           transform="translate(169.8506,110.5)"><path
             d="m 0,0 h -50.351 c -5.522,0 -10,4.478 -10,10 v 29 h 293 V 10 c 0,-5.522 -4.477,-10 -10,-10 h -49.797"
             style="fill:none;stroke:#000000;stroke-width:15;stroke-linecap:round;stroke-linejoin:round;stroke-miterlimit:10;stroke-dasharray:none;stroke-opacity:1"
             id="path5645" /></g><g
           id="g5647"
           transform="translate(458.5,327.1064)"><path
             d="m 0,0 v -147.606 c 0,-16.569 -13.432,-30 -30,-30 h -345 c -16.568,0 -30,13.431 -30,30 v 295 c 0,16.568 13.432,30 30,30 h 345 c 16.568,0 30,-13.432 30,-30 V 35"
             style="fill:none;stroke:#000000;stroke-width:15;stroke-linecap:round;stroke-linejoin:round;stroke-miterlimit:10;stroke-dasharray:none;stroke-opacity:1"
             id="path5649" /></g><g
           id="g5651"
           transform="translate(83.5,279.1494)"><path
             d="m 0,0 v 185.351 c 0,5.522 4.478,10 10,10 h 122.937"
             style="fill:none;stroke:#000000;stroke-width:15;stroke-linecap:round;stroke-linejoin:round;stroke-miterlimit:10;stroke-dasharray:none;stroke-opacity:1"
             id="path5653" /></g><g
           id="g5655"
           transform="translate(251.4375,474.5)"><path
             d="m 0,0 h 167.062 c 5.523,0 10,-4.478 10,-10 v -275 c 0,-5.522 -4.477,-10 -10,-10 h -324.999 c -5.523,0 -10,4.478 -10,10 v 54.649"
             style="fill:none;stroke:#000000;stroke-width:15;stroke-linecap:round;stroke-linejoin:round;stroke-miterlimit:10;stroke-dasharray:none;stroke-opacity:1"
             id="path5657" /></g><g
           id="g5659"
           transform="translate(271,147.6387)"><path
             d="M 0,0 V -140.139"
             style="fill:none;stroke:#000000;stroke-width:15;stroke-linecap:round;stroke-linejoin:round;stroke-miterlimit:10;stroke-dasharray:none;stroke-opacity:1"
             id="path5661" /></g><g
           id="g5663"
           transform="translate(241,7.5)"><path
             d="M 0,0 V 140.139"
             style="fill:none;stroke:#000000;stroke-width:15;stroke-linecap:round;stroke-linejoin:round;stroke-miterlimit:10;stroke-dasharray:none;stroke-opacity:1"
             id="path5665" /></g><g
           id="g5667"
           transform="translate(311,147.6387)"><path
             d="m 0,0 v -110.139 c 0,-16.568 13.432,-30 30,-30 h 163.5"
             style="fill:none;stroke:#000000;stroke-width:15;stroke-linecap:round;stroke-linejoin:round;stroke-miterlimit:10;stroke-dasharray:none;stroke-opacity:1"
             id="path5669" /></g><g
           id="g5671"
           transform="translate(504.5,37.5)"><path
             d="m 0,0 h -160.5 c -1.657,0 -3,1.343 -3,3 v 107.139"
             style="fill:none;stroke:#000000;stroke-width:15;stroke-linecap:round;stroke-linejoin:round;stroke-miterlimit:10;stroke-dasharray:none;stroke-opacity:1"
             id="path5673" /></g><g
           id="g5675"
           transform="translate(74.5,37.5)"><path
             d="M 0,0 H -67"
             style="fill:none;stroke:#000000;stroke-width:15;stroke-linecap:round;stroke-linejoin:round;stroke-miterlimit:10;stroke-dasharray:none;stroke-opacity:1"
             id="path5677" /></g><g
           id="g5679"
           transform="translate(171,147.6387)"><path
             d="m 0,0 v -107.139 c 0,-1.657 -1.343,-3 -3,-3 h -58.5"
             style="fill:none;stroke:#000000;stroke-width:15;stroke-linecap:round;stroke-linejoin:round;stroke-miterlimit:10;stroke-dasharray:none;stroke-opacity:1"
             id="path5681" /></g><g
           id="g5683"
           transform="translate(7.5,7.5)"><path
             d="m 0,0 h 163.5 c 16.568,0 30,13.432 30,30 v 110.139"
             style="fill:none;stroke:#000000;stroke-width:15;stroke-linecap:round;stroke-linejoin:round;stroke-miterlimit:10;stroke-dasharray:none;stroke-opacity:1"
             id="path5685" /></g><g
           id="g5687"
           transform="translate(209.6211,311.4121)"><path
             d="m 0,0 c -2.745,-3.657 -0.136,-8.879 4.437,-8.879 h 32.004 l -17.251,-39.9 c -2.598,-6.013 1.809,-12.721 8.36,-12.721 2.865,0 5.563,1.349 7.283,3.641 l 47.925,63.86 c 2.745,3.657 0.136,8.879 -4.438,8.879 H 46.315 l 17.251,39.9 c 2.6,6.013 -1.807,12.72 -8.358,12.72 -2.865,0 -5.563,-1.349 -7.283,-3.64 z"
             style="fill:none;stroke:#000000;stroke-width:15;stroke-linecap:round;stroke-linejoin:round;stroke-miterlimit:10;stroke-dasharray:none;stroke-opacity:1"
             id="path5689" /></g><g
           id="g5691"
           transform="translate(230.0195,417.0645)"><path
             d="m 0,0 -86.677,-150.129 c -11.547,-20 2.887,-45 25.981,-45 h 173.353 c 23.094,0 37.528,25 25.981,45 L 51.961,0 C 40.414,20 11.547,20 0,0 Z"
             style="fill:none;stroke:#000000;stroke-width:15;stroke-linecap:round;stroke-linejoin:round;stroke-miterlimit:10;stroke-dasharray:none;stroke-opacity:1"
             id="path5693" /></g><g
           id="g5695"
           transform="translate(161.5,420.5)"><path
             d="m 0,0 c 0,13.255 -10.745,24 -24,24 -13.255,0 -24,-10.745 -24,-24 0,-13.255 10.745,-24 24,-24 13.255,0 24,10.745 24,24 z"
             style="fill:none;stroke:#000000;stroke-width:15;stroke-linecap:round;stroke-linejoin:round;stroke-miterlimit:10;stroke-dasharray:none;stroke-opacity:1"
             id="path5697" /></g><g
           id="g5699"
           transform="translate(137.5,396.5)"><path
             d="M 0,0 V -22"
             style="fill:none;stroke:#000000;stroke-width:15;stroke-linecap:round;stroke-linejoin:round;stroke-miterlimit:10;stroke-dasharray:none;stroke-opacity:1"
             id="path5701" /></g></g></g></g></svg>
