<svg xmlns="http://www.w3.org/2000/svg" version="1.1" xmlns:xlink="http://www.w3.org/1999/xlink" width="512" height="512" x="0" y="0" viewBox="0 0 48 48" style="enable-background:new 0 0 512 512" xml:space="preserve"><g><path d="M8.737 17.282a.75.75 0 0 0-.75.75v4.679H6.33a.75.75 0 1 0 0 1.5h1.657v.889a.75.75 0 0 0 1.5 0v-.884h2.034a.75.75 0 0 0 0-1.5H9.487v-4.684a.75.75 0 0 0-.75-.75z" fill="#ff5958" opacity="1" data-original="#000000"></path><path d="M46.439 22.583 33.92 11.722a2.939 2.939 0 0 0-1.846-.693H9.727a1.743 1.743 0 0 0-1.74 1.74v2.107h-2.9a.75.75 0 0 0 0 1.5H11.2a.75.75 0 0 0 0-1.5H9.487v-2.107a.241.241 0 0 1 .24-.24h22.347a1.434 1.434 0 0 1 .893.35l12.489 10.837a3.033 3.033 0 0 1 1.044 2.289v5.483a.24.24 0 0 1-.24.241h-2.819a4.474 4.474 0 0 0-8.828 0H22.642a4.474 4.474 0 0 0-8.828 0H9.727a.241.241 0 0 1-.24-.241v-3.36h2.522a.75.75 0 0 0 0-1.5H2.522a.75.75 0 1 0 0 1.5h5.465v3.36a1.743 1.743 0 0 0 1.74 1.741h4.087a4.474 4.474 0 0 0 8.827 0h11.972a4.474 4.474 0 0 0 8.828 0h2.819A1.742 1.742 0 0 0 48 31.488v-5.483a4.529 4.529 0 0 0-1.561-3.422zM18.228 35.471a2.993 2.993 0 1 1 2.989-2.992 3 3 0 0 1-2.989 2.992zm20.8 0a2.993 2.993 0 1 1 2.99-2.992 2.995 2.995 0 0 1-2.991 2.992z" fill="#ff5958" opacity="1" data-original="#000000"></path><path d="M17.842 23.008a.75.75 0 0 0 .75.75h1.568a.75.75 0 0 0 0-1.5h-1.568a.75.75 0 0 0-.75.75zM21.771 23.008a.75.75 0 0 0 .75.75h3.931a.75.75 0 0 0 .75-.75v-1.279a.75.75 0 0 0-1.5 0v.529h-3.181a.75.75 0 0 0-.75.75zM24.719 13.423h-4.865a.75.75 0 0 0 0 1.5h4.865a.75.75 0 0 0 0-1.5zM17.688 13.423h-3.982a.75.75 0 0 0-.75.75v1.965a.75.75 0 0 0 1.5 0v-1.215h3.232a.75.75 0 0 0 0-1.5zM7.08 19.544a.75.75 0 0 0-.75-.75H.75a.75.75 0 0 0 0 1.5h5.58a.75.75 0 0 0 .75-.75z" fill="#ff5958" opacity="1" data-original="#000000"></path><circle cx="39.027" cy="32.478" r="1.25" fill="#ff5958" opacity="1" data-original="#000000"></circle><circle cx="18.228" cy="32.478" r="1.25" fill="#ff5958" opacity="1" data-original="#000000"></circle><path d="M41.7 23.9H29.951a.75.75 0 0 1-.75-.75v-8.833a.75.75 0 0 1 .75-.75h1.559a.749.749 0 0 1 .491.184l10.189 8.835a.749.749 0 0 1-.49 1.314zm-11-1.5h8.988l-8.458-7.333h-.53z" fill="#ff5958" opacity="1" data-original="#000000"></path></g></svg>